<svg viewBox="0 0 120 120" fill="none" xmlns="http://www.w3.org/2000/svg">
  <line x1="22" y1="96" x2="22" y2="20" stroke="#2d3748" stroke-width="14" stroke-linecap="round" />
  <path
    d="M22 20 Q22 10 32 10 L62 10 Q84 10 84 34 Q84 58 62 58 L22 58"
    stroke="#2d3748"
    stroke-width="14"
    stroke-linecap="round"
    stroke-linejoin="round"
    fill="none"
  />
  <path
    d="M30 20 Q30 18 35 18 L60 18 Q72 18 72 34 Q72 50 60 50 L30 50"
    stroke="#2d3748"
    stroke-width="4"
    stroke-linecap="round"
    stroke-linejoin="round"
    fill="#0a0a0f"
  />
  <line x1="22" y1="58" x2="76" y2="96" stroke="#2d3748" stroke-width="14" stroke-linecap="round" />
  <path
    d="M54 26 A10 10 0 1 1 44.1 33.5"
    stroke="#14b8a6"
    stroke-width="3.5"
    stroke-linecap="round"
    fill="none"
  />
  <polygon points="44,29 40,36 48,36" fill="#14b8a6" transform="rotate(-15 44 34)" />
  <line x1="80" y1="96" x2="102" y2="96" stroke="#14b8a6" stroke-width="3.5" stroke-linecap="round" />
  <polygon points="108,96 100,91 100,101" fill="#14b8a6" />
  <rect x="109" y="90" width="10" height="12" rx="2" stroke="#14b8a6" stroke-width="2.5" fill="none" />
</svg>
